<svg width="120" height="15" viewBox="0 0 120 15" fill="none" xmlns="http://www.w3.org/2000/svg">
<path d="M0 2.20881V0H11.6051V2.20881H7.10938V14.5455H4.49574V2.20881H0Z" fill="white"/>
<path d="M16.9762 14.7585C15.8825 14.7585 14.9379 14.5312 14.1424 14.0767C13.3517 13.6174 12.7433 12.9688 12.3171 12.1307C11.891 11.2879 11.6779 10.2959 11.6779 9.15483C11.6779 8.03267 11.891 7.04782 12.3171 6.20028C12.748 5.34801 13.3493 4.68513 14.1211 4.21165C14.8929 3.73343 15.7996 3.49432 16.8413 3.49432C17.5136 3.49432 18.1481 3.60322 18.7447 3.82102C19.346 4.03409 19.8763 4.36553 20.3356 4.81534C20.7996 5.26515 21.1642 5.83807 21.4293 6.53409C21.6945 7.22538 21.8271 8.04924 21.8271 9.00568V9.79403H12.8853V8.06108H19.3626C19.3578 7.56866 19.2513 7.13068 19.043 6.74716C18.8346 6.3589 18.5434 6.0535 18.1694 5.83097C17.8001 5.60843 17.3692 5.49716 16.8768 5.49716C16.3512 5.49716 15.8896 5.625 15.4918 5.88068C15.0941 6.13163 14.784 6.46307 14.5614 6.875C14.3436 7.2822 14.2324 7.72964 14.2276 8.21733V9.73011C14.2276 10.3646 14.3436 10.9091 14.5756 11.3636C14.8076 11.8134 15.132 12.1591 15.5487 12.4006C15.9653 12.6373 16.453 12.7557 17.0117 12.7557C17.3858 12.7557 17.7243 12.7036 18.0273 12.5994C18.3304 12.4905 18.5932 12.3319 18.8157 12.1236C19.0382 11.9152 19.2063 11.6572 19.32 11.3494L21.7205 11.6193C21.569 12.2538 21.2802 12.8078 20.854 13.2812C20.4326 13.75 19.8929 14.1146 19.2347 14.375C18.5766 14.6307 17.8237 14.7585 16.9762 14.7585Z" fill="white"/>
<path d="M28.7607 14.7585C27.6716 14.7585 26.7365 14.5194 25.9553 14.0412C25.1787 13.563 24.5798 12.9025 24.1584 12.0597C23.7417 11.2121 23.5334 10.2367 23.5334 9.13352C23.5334 8.02557 23.7464 7.04782 24.1726 6.20028C24.5987 5.34801 25.2 4.68513 25.9766 4.21165C26.7578 3.73343 27.6811 3.49432 28.7464 3.49432C29.6319 3.49432 30.4155 3.65767 31.0973 3.98438C31.7839 4.30634 32.3307 4.76326 32.7379 5.35511C33.1451 5.94223 33.3771 6.62879 33.4339 7.41477H30.9766C30.8771 6.8892 30.6404 6.45123 30.2663 6.10085C29.897 5.74574 29.4022 5.56818 28.782 5.56818C28.2564 5.56818 27.7947 5.71023 27.397 5.99432C26.9993 6.27367 26.6892 6.67614 26.4666 7.2017C26.2488 7.72727 26.1399 8.35701 26.1399 9.09091C26.1399 9.83428 26.2488 10.4735 26.4666 11.0085C26.6844 11.5388 26.9898 11.9484 27.3828 12.2372C27.7805 12.5213 28.2469 12.6634 28.782 12.6634C29.1607 12.6634 29.4993 12.5923 29.7976 12.4503C30.1006 12.3035 30.3539 12.0928 30.5575 11.8182C30.7611 11.5436 30.9008 11.2098 30.9766 10.8168H33.4339C33.3724 11.5885 33.1451 12.2727 32.7521 12.8693C32.3591 13.4612 31.8241 13.9252 31.147 14.2614C30.4699 14.5928 29.6745 14.7585 28.7607 14.7585Z" fill="white"/>
<path d="M38.1161 8.15341V14.5455H35.5451V0H38.0593V5.49006H38.1871C38.4428 4.87453 38.8382 4.3892 39.3732 4.03409C39.913 3.67424 40.5996 3.49432 41.4329 3.49432C42.1905 3.49432 42.851 3.65294 43.4144 3.97017C43.9779 4.28741 44.4135 4.75142 44.7212 5.36222C45.0337 5.97301 45.19 6.71875 45.19 7.59943V14.5455H42.619V7.99716C42.619 7.26326 42.4296 6.69271 42.0508 6.28551C41.6767 5.87358 41.1512 5.66761 40.4741 5.66761C40.0195 5.66761 39.6123 5.76705 39.2525 5.96591C38.8974 6.16004 38.618 6.44176 38.4144 6.81108C38.2156 7.1804 38.1161 7.62784 38.1161 8.15341Z" fill="white"/>
<path d="M47.9244 14.5455V0H53.3789C54.4963 0 55.4338 0.208333 56.1914 0.625C56.9537 1.04167 57.529 1.61458 57.9173 2.34375C58.3103 3.06818 58.5067 3.89205 58.5067 4.81534C58.5067 5.74811 58.3103 6.5767 57.9173 7.30114C57.5243 8.02557 56.9442 8.59612 56.1772 9.01278C55.4102 9.42472 54.4656 9.63068 53.3434 9.63068H49.7283V7.46449H52.9883C53.6417 7.46449 54.1767 7.35085 54.5934 7.12358C55.0101 6.89631 55.3178 6.58381 55.5167 6.18608C55.7203 5.78835 55.8221 5.33144 55.8221 4.81534C55.8221 4.29924 55.7203 3.8447 55.5167 3.4517C55.3178 3.05871 55.0077 2.75331 54.5863 2.53551C54.1696 2.31297 53.6322 2.2017 52.9741 2.2017H50.5593V14.5455H47.9244Z" fill="white"/>
<path d="M65.2841 14.7585C64.2188 14.7585 63.2955 14.5241 62.5142 14.0554C61.733 13.5866 61.1269 12.9309 60.696 12.0881C60.2699 11.2453 60.0568 10.2604 60.0568 9.13352C60.0568 8.00663 60.2699 7.01941 60.696 6.17188C61.1269 5.32434 61.733 4.66619 62.5142 4.19744C63.2955 3.72869 64.2188 3.49432 65.2841 3.49432C66.3494 3.49432 67.2727 3.72869 68.054 4.19744C68.8352 4.66619 69.4389 5.32434 69.8651 6.17188C70.2959 7.01941 70.5114 8.00663 70.5114 9.13352C70.5114 10.2604 70.2959 11.2453 69.8651 12.0881C69.4389 12.9309 68.8352 13.5866 68.054 14.0554C67.2727 14.5241 66.3494 14.7585 65.2841 14.7585ZM65.2983 12.6989C65.8759 12.6989 66.3589 12.5402 66.7472 12.223C67.1354 11.901 67.4242 11.4702 67.6136 10.9304C67.8078 10.3906 67.9048 9.7893 67.9048 9.12642C67.9048 8.45881 67.8078 7.85511 67.6136 7.31534C67.4242 6.77083 67.1354 6.33759 66.7472 6.01562C66.3589 5.69366 65.8759 5.53267 65.2983 5.53267C64.7064 5.53267 64.214 5.69366 63.821 6.01562C63.4328 6.33759 63.1416 6.77083 62.9474 7.31534C62.7581 7.85511 62.6634 8.45881 62.6634 9.12642C62.6634 9.7893 62.7581 10.3906 62.9474 10.9304C63.1416 11.4702 63.4328 11.901 63.821 12.223C64.214 12.5402 64.7064 12.6989 65.2983 12.6989Z" fill="white"/>
<path d="M81.3157 6.51989L78.9719 6.77557C78.9057 6.53883 78.7896 6.31629 78.6239 6.10795C78.4629 5.89962 78.2451 5.73153 77.9705 5.60369C77.6959 5.47585 77.3597 5.41193 76.962 5.41193C76.427 5.41193 75.9772 5.52794 75.6126 5.75994C75.2527 5.99195 75.0752 6.29261 75.0799 6.66193C75.0752 6.97917 75.1912 7.23722 75.4279 7.43608C75.6694 7.63494 76.0671 7.7983 76.6211 7.92614L78.4819 8.32386C79.5141 8.5464 80.2811 8.89915 80.783 9.3821C81.2897 9.86506 81.5453 10.4972 81.5501 11.2784C81.5453 11.965 81.3441 12.571 80.9464 13.0966C80.5534 13.6174 80.0065 14.0246 79.3058 14.3182C78.605 14.6117 77.8001 14.7585 76.891 14.7585C75.5558 14.7585 74.4809 14.4792 73.6665 13.9205C72.8522 13.357 72.3668 12.5734 72.2106 11.5696L74.7177 11.3281C74.8313 11.8205 75.0728 12.1922 75.4421 12.4432C75.8114 12.6941 76.292 12.8196 76.8839 12.8196C77.4947 12.8196 77.9847 12.6941 78.354 12.4432C78.7281 12.1922 78.9151 11.8821 78.9151 11.5128C78.9151 11.2003 78.7944 10.9422 78.5529 10.7386C78.3162 10.535 77.9468 10.3788 77.445 10.2699L75.5842 9.87926C74.5378 9.66146 73.7636 9.29451 73.2617 8.77841C72.7598 8.25758 72.5112 7.59943 72.516 6.80398C72.5112 6.13163 72.6935 5.54924 73.0629 5.05682C73.4369 4.55966 73.9554 4.17614 74.6183 3.90625C75.2859 3.63163 76.0553 3.49432 76.9265 3.49432C78.2049 3.49432 79.2111 3.76657 79.945 4.31108C80.6836 4.85559 81.1405 5.59186 81.3157 6.51989Z" fill="white"/>
<path d="M89.1175 3.63636V5.625H82.8462V3.63636H89.1175ZM84.3945 1.02273H86.9656V11.2642C86.9656 11.6098 87.0176 11.875 87.1218 12.0597C87.2307 12.2396 87.3728 12.3627 87.5479 12.429C87.7231 12.4953 87.9173 12.5284 88.1303 12.5284C88.2913 12.5284 88.4381 12.5166 88.5707 12.4929C88.708 12.4692 88.8121 12.4479 88.8832 12.429L89.3164 14.4389C89.1791 14.4863 88.9826 14.5384 88.7269 14.5952C88.476 14.652 88.1682 14.6851 87.8036 14.6946C87.1597 14.7135 86.5797 14.6165 86.0636 14.4034C85.5475 14.1856 85.1379 13.8494 84.8349 13.3949C84.5366 12.9403 84.3898 12.3722 84.3945 11.6903V1.02273Z" fill="white"/>
<path d="M95.9801 14.7585C94.8864 14.7585 93.9418 14.5312 93.1463 14.0767C92.3556 13.6174 91.7472 12.9688 91.321 12.1307C90.8949 11.2879 90.6818 10.2959 90.6818 9.15483C90.6818 8.03267 90.8949 7.04782 91.321 6.20028C91.7519 5.34801 92.3532 4.68513 93.125 4.21165C93.8968 3.73343 94.8035 3.49432 95.8452 3.49432C96.5175 3.49432 97.152 3.60322 97.7486 3.82102C98.3499 4.03409 98.8802 4.36553 99.3395 4.81534C99.8035 5.26515 100.168 5.83807 100.433 6.53409C100.698 7.22538 100.831 8.04924 100.831 9.00568V9.79403H91.8892V8.06108H98.3665C98.3617 7.56866 98.2552 7.13068 98.0469 6.74716C97.8385 6.3589 97.5473 6.0535 97.1733 5.83097C96.804 5.60843 96.3731 5.49716 95.8807 5.49716C95.3551 5.49716 94.8935 5.625 94.4957 5.88068C94.098 6.13163 93.7879 6.46307 93.5653 6.875C93.3475 7.2822 93.2363 7.72964 93.2315 8.21733V9.73011C93.2315 10.3646 93.3475 10.9091 93.5795 11.3636C93.8116 11.8134 94.1359 12.1591 94.5526 12.4006C94.9692 12.6373 95.4569 12.7557 96.0156 12.7557C96.3897 12.7557 96.7282 12.7036 97.0312 12.5994C97.3343 12.4905 97.5971 12.3319 97.8196 12.1236C98.0421 11.9152 98.2102 11.6572 98.3239 11.3494L100.724 11.6193C100.573 12.2538 100.284 12.8078 99.858 13.2812C99.4366 13.75 98.8968 14.1146 98.2386 14.375C97.5805 14.6307 96.8276 14.7585 95.9801 14.7585Z" fill="white"/>
<path d="M103.006 14.5455V3.63636H105.499V5.45455H105.613C105.811 4.82481 106.152 4.33949 106.635 3.99858C107.123 3.65294 107.679 3.48011 108.304 3.48011C108.446 3.48011 108.605 3.48722 108.78 3.50142C108.96 3.51089 109.109 3.52746 109.228 3.55114V5.91619C109.119 5.87831 108.946 5.84517 108.709 5.81676C108.477 5.78362 108.252 5.76705 108.034 5.76705C107.566 5.76705 107.144 5.86884 106.77 6.07244C106.401 6.27131 106.11 6.5483 105.897 6.90341C105.684 7.25852 105.577 7.66809 105.577 8.1321V14.5455H103.006Z" fill="white"/>
<path d="M119.558 6.51989L117.214 6.77557C117.148 6.53883 117.032 6.31629 116.866 6.10795C116.705 5.89962 116.487 5.73153 116.213 5.60369C115.938 5.47585 115.602 5.41193 115.204 5.41193C114.669 5.41193 114.219 5.52794 113.855 5.75994C113.495 5.99195 113.317 6.29261 113.322 6.66193C113.317 6.97917 113.433 7.23722 113.67 7.43608C113.912 7.63494 114.309 7.7983 114.863 7.92614L116.724 8.32386C117.756 8.5464 118.523 8.89915 119.025 9.3821C119.532 9.86506 119.788 10.4972 119.792 11.2784C119.788 11.965 119.586 12.571 119.189 13.0966C118.796 13.6174 118.249 14.0246 117.548 14.3182C116.847 14.6117 116.042 14.7585 115.133 14.7585C113.798 14.7585 112.723 14.4792 111.909 13.9205C111.094 13.357 110.609 12.5734 110.453 11.5696L112.96 11.3281C113.074 11.8205 113.315 12.1922 113.684 12.4432C114.054 12.6941 114.534 12.8196 115.126 12.8196C115.737 12.8196 116.227 12.6941 116.596 12.4432C116.97 12.1922 117.157 11.8821 117.157 11.5128C117.157 11.2003 117.037 10.9422 116.795 10.7386C116.558 10.535 116.189 10.3788 115.687 10.2699L113.826 9.87926C112.78 9.66146 112.006 9.29451 111.504 8.77841C111.002 8.25758 110.753 7.59943 110.758 6.80398C110.753 6.13163 110.936 5.54924 111.305 5.05682C111.679 4.55966 112.198 4.17614 112.86 3.90625C113.528 3.63163 114.297 3.49432 115.169 3.49432C116.447 3.49432 117.453 3.76657 118.187 4.31108C118.926 4.85559 119.383 5.59186 119.558 6.51989Z" fill="white"/>
</svg>
